<?xml version="1.0" encoding="utf-8"?>
<!-- Generator: Adobe Illustrator 22.0.1, SVG Export Plug-In . SVG Version: 6.00 Build 0)  -->
<svg version="1.1" id="Layer_1" xmlns="http://www.w3.org/2000/svg" xmlns:xlink="http://www.w3.org/1999/xlink" x="0px" y="0px"
	 viewBox="0 0 30 30" style="enable-background:new 0 0 30 30;" xml:space="preserve">
<title>ui-nav-default-profile</title>
<desc>Created with Sketch.</desc>
<g id="Page-1">
	<g id="Artboard" transform="translate(-200.000000, -2556.000000)">
		<g id="icon_x2F_nav_x2F_settings-default" transform="translate(200.000000, 2556.000000)">
			<g id="Group-3" transform="translate(5.300000, 4.300000)">
				<path fill="#FEFEFE" d="M9.7,20.7c-0.1,0-0.2,0-0.2,0c-4.1-1.2-6.5-2.7-7.7-4.6c-0.9-1.5-1.1-2.9-1-6.2l0-5.8
					c0-0.3,0.2-0.5,0.5-0.6l8.2-2.7c0.2-0.1,0.3-0.1,0.5,0l8.2,2.7c0.3,0.1,0.5,0.3,0.5,0.6l0,5.8c0,3.3-0.1,4.7-1,6.2
					c-1.2,1.9-3.6,3.4-7.7,4.6C9.9,20.7,9.8,20.7,9.7,20.7z M9.7,1.4L1.4,4.1l0,5.8c0,3.4,0.1,4.5,0.9,5.8c1.1,1.8,3.4,3.1,7.3,4.3
					c4-1.2,6.3-2.5,7.4-4.3c0.8-1.3,1-2.4,0.9-5.8L18,4L9.7,1.4z"/>
				<path fill="#FEFEFE" d="M13,15.2H6.4c-0.4,0-0.7-0.3-0.7-0.7c0-2,1.5-3.6,3.3-3.6h1.3c1.8,0,3.3,1.6,3.3,3.6
					C13.7,14.9,13.4,15.2,13,15.2z M9.1,11.6c-1.4,0-2.6,1.3-2.6,2.9l6.6,0c0-1.6-1.2-2.9-2.7-2.9H9.1z"/>
				<path fill="#FEFEFE" d="M9.7,9.7c-1.4,0-2.5-1.1-2.5-2.5c0-1.4,1.1-2.5,2.5-2.5c1.4,0,2.5,1.1,2.5,2.5C12.2,8.6,11.1,9.7,9.7,9.7z
					 M9.7,5.4c-1,0-1.8,0.8-1.8,1.8S8.7,9,9.7,9s1.8-0.8,1.8-1.8S10.7,5.4,9.7,5.4z"/>
			</g>
		</g>
	</g>
</g>
</svg>
