<?xml version="1.0" encoding="UTF-8"?>
<svg width="30px" height="30px" viewBox="0 0 30 30" version="1.1" xmlns="http://www.w3.org/2000/svg" xmlns:xlink="http://www.w3.org/1999/xlink">
    <!-- Generator: Sketch 49 (51002) - http://www.bohemiancoding.com/sketch -->
    <title>ui-nav-active-profile copy</title>
    <desc>Created with Sketch.</desc>
    <defs>
        <path d="M4,5.5 C2.61928813,5.5 1.5,4.38071187 1.5,3 C1.5,1.61928813 2.61928813,0.5 4,0.5 C5.38071187,0.5 6.5,1.61928813 6.5,3 C6.5,4.38071187 5.38071187,5.5 4,5.5 Z M4.68381347,6.66666667 C6.51295337,6.66666667 7.99987565,8.28588889 7.99987565,10.2777778 C7.99987565,10.6764444 7.70275648,11 7.33666321,11 L0.70453886,11 C0.338445596,11 0.0413264249,10.6764444 0.0413264249,10.2777778 C0.0413264249,8.28588889 1.52957513,6.66666667 3.3573886,6.66666667 L4.68381347,6.66666667 Z" id="path-1"></path>
    </defs>
    <g id="Page-1" stroke="none" stroke-width="1" fill="none" fill-rule="evenodd">
        <g id="icon/nav/settings-active">
            <g id="Group-2" transform="translate(6.000000, 5.000000)">
                <path d="M17.9925574,9.144 L17.9850698,3.33333333 C17.9850698,3.05333333 17.7873983,2.80266667 17.4923885,2.70666667 L9.25607449,0.04 C9.17357793,0.0132901369 9.08694987,-4.31614033e-05 9.00014039,1.04958453e-07 C9.00014039,0.359375 9,19.3359375 9,20 C9.07936812,20 9.16023375,19.988 9.23660684,19.9666667 C18.0779155,17.3413333 18.0434728,13.904 17.9925574,9.144 Z" id="Shape" fill="#FFBA43" fill-rule="nonzero"></path>
                <path d="M8.99255739,9.144 L8.98506983,3.33333333 C8.98506983,3.05333333 8.78739829,2.80266667 8.4923885,2.70666667 L0.25607449,0.04 C0.173577933,0.0132901369 0.0869498661,-4.31614033e-05 0.000140391769,1.04958453e-07 C0.000140391768,0.359375 -2.19265524e-12,19.3359375 0,20 C0.0793681168,20 0.160233745,19.988 0.236606839,19.9666667 C9.07791555,17.3413333 9.04347278,13.904 8.99255739,9.144 Z" id="Shape" fill="#FFD15C" fill-rule="nonzero" transform="translate(4.500000, 10.000000) scale(-1, 1) translate(-4.500000, -10.000000) "></path>
                <path d="M16.985405,3.59363157 L8.99986933,1.0081968 L1.01433261,3.59363191 L1.00712746,9.15438441 C0.973732591,12.3700775 1.11980007,13.550931 1.9037362,14.8329984 C2.91405447,16.4852966 5.06643632,17.8193046 9.0020996,18.9930708 C12.9345314,17.8195318 15.0858313,16.4858097 16.0960605,14.8340702 C16.8804918,13.5515136 17.0269805,12.3674735 16.9926145,9.15469606 L16.985405,3.59363157 Z M17.9925573,9.144 C18.0434734,13.904 18.0779167,17.3413333 9.2364796,19.9666667 C9.1601054,19.988 9.0792386,20 8.99986933,20 C8.92050006,20 8.83963326,19.988 8.76325905,19.9653333 C-0.0796755556,17.34 -0.0422372211,13.9026667 0.00718138046,9.144 L0.0146690474,3.33333333 C0.0146690474,3.05333333 0.21084592,2.80266667 0.507357529,2.70666667 L8.74379112,0.04 C8.91001733,-0.0133333333 9.09121887,-0.0133333333 9.25594754,0.04 L17.4923811,2.70666667 C17.7873952,2.80266667 17.9850696,3.05333333 17.9850696,3.33333333 L17.9925573,9.144 Z" id="Shape" fill="#FFAD35" fill-rule="nonzero"></path>
                <g id="Rectangle" transform="translate(9.000000, 3.000000)"></g>
                <g id="Group" transform="translate(5.000000, 3.500000)">
                    <path d="M4,6.5 C2.61928813,6.5 1.5,5.38071187 1.5,4 C1.5,2.61928813 2.61928813,1.5 4,1.5 C5.38071187,1.5 6.5,2.61928813 6.5,4 C6.5,5.38071187 5.38071187,6.5 4,6.5 Z M4.68381347,7.67000008 C6.51295337,7.67000008 7.99987565,9.2892223 7.99987565,11.2811112 C7.99987565,11.6797779 7.70275648,12.0033334 7.33666321,12.0033334 L0.70453886,12.0033334 C0.338445596,12.0033334 0.0413264249,11.6797779 0.0413264249,11.2811112 C0.0413264249,9.2892223 1.52957513,7.67000008 3.3573886,7.67000008 L4.68381347,7.67000008 Z" id="Mask" fill="#EF9325" fill-rule="nonzero"></path>
                    <mask id="mask-2" fill="white">
                        <use xlink:href="#path-1"></use>
                    </mask>
                    <use id="Mask" fill="#FFFFFF" fill-rule="nonzero" xlink:href="#path-1"></use>
                    <path d="M7.84760104,9.18890251 C7.9465241,9.53204398 7.99987565,9.89709623 7.99987565,10.275561 C7.99987565,10.6754513 7.70275648,11 7.33666321,11 L0.70453886,11 C0.338445596,11 0.0413264249,10.6754513 0.0413264249,10.275561 C0.0413264249,8.65654998 1.01852531,7.28298667 2.3617535,6.82015 C2.13053013,7.31381632 2,7.87274698 2,8.46446352 C2,8.86435384 2.29711917,9.18890251 2.66321244,9.18890251 L7.84760104,9.18890251 Z" id="Combined-Shape" fill="#FFF6D8" mask="url(#mask-2)"></path>
                    <path d="M2.61923868,3.28270744e-12 C2.35274703,0.467982531 2.20042095,1.01008728 2.20042095,1.58795499 C2.20042095,3.35588614 3.62618645,4.78907751 5.38495734,4.78907751 C5.95390136,4.78907751 6.48799787,4.63910049 6.95025505,4.37633093 C6.4014409,5.34009632 5.3684337,5.98949846 4.18453639,5.98949846 C2.42576551,5.98949846 1,4.55630709 1,2.78837594 C1,1.59235206 1.65252493,0.549527321 2.61923868,3.06588088e-12 Z" id="Combined-Shape" fill="#FFF6D8" mask="url(#mask-2)"></path>
                </g>
            </g>
        </g>
    </g>
</svg>